<svg xmlns="http://www.w3.org/2000/svg" xmlns:xlink="http://www.w3.org/1999/xlink" width="40" zoomAndPan="magnify" viewBox="0 0 30 30.000001" height="40" preserveAspectRatio="xMidYMid meet" version="1.0"><defs><clipPath id="b5fd19e4a5"><path d="M 0.484375 14 L 29.515625 14 L 29.515625 25.863281 L 0.484375 25.863281 Z M 0.484375 14 " clip-rule="nonzero"/></clipPath></defs><path fill="#aa0000" d="M 10.121094 14.691406 C 5.570312 11.113281 4.703125 9.75 4.855469 6.40625 C 4.886719 5.730469 5.195312 5.148438 5.890625 4.460938 C 6.734375 3.625 7.082031 3.480469 8.242188 3.480469 C 9.917969 3.480469 10.519531 3.785156 11.421875 5.097656 L 12.125 6.121094 L 12.632812 5.273438 C 14.203125 2.640625 18.152344 3.046875 19.125 5.941406 C 19.757812 7.824219 19.300781 9.621094 17.722656 11.441406 C 17.050781 12.214844 12.351562 16.160156 12.097656 16.160156 C 12.039062 16.160156 11.148438 15.5 10.121094 14.691406 Z M 10.121094 14.691406 " fill-opacity="1" fill-rule="nonzero"/><g clip-path="url(#b5fd19e4a5)"><path fill="#333333" d="M 1.117188 14.332031 C 1.492188 14.3125 2.039062 14.9375 2.8125 16.253906 C 4.40625 18.960938 7.121094 21.605469 8.988281 22.261719 C 10.5 22.796875 11.140625 22.761719 13.214844 22.039062 C 14.210938 21.695312 15.816406 21.324219 16.777344 21.21875 L 18.523438 21.03125 L 17.046875 20.984375 C 16.105469 20.957031 14.78125 21.210938 13.40625 21.6875 C 11.09375 22.488281 9.539062 22.472656 8.253906 21.640625 C 6.777344 20.683594 7.96875 19.710938 11.023438 19.378906 C 13.757812 19.085938 15.269531 18.539062 17.441406 17.074219 C 20.277344 15.15625 22.871094 14.84375 27.941406 15.800781 L 29.492188 16.089844 L 29.417969 18.664062 C 29.347656 21.046875 29.300781 21.222656 28.785156 21.058594 C 28.476562 20.960938 27.421875 20.882812 26.4375 20.882812 C 24.78125 20.882812 24.300781 21.054688 19.984375 23.199219 C 17.417969 24.46875 15.121094 25.578125 14.882812 25.65625 C 14.253906 25.863281 12.972656 25.585938 10.800781 24.773438 C 9.761719 24.382812 8.117188 23.820312 7.152344 23.519531 C 5.128906 22.890625 4.085938 21.9375 2.601562 19.355469 C 1.152344 16.835938 0.503906 15.269531 0.703125 14.761719 C 0.808594 14.488281 0.945312 14.34375 1.117188 14.332031 Z M 2.945312 14.597656 C 3.257812 14.621094 3.757812 14.945312 4.21875 15.488281 C 4.722656 16.078125 4.972656 16.222656 4.972656 15.921875 C 4.972656 15.101562 5.78125 15.445312 6.671875 16.640625 C 7.152344 17.289062 7.949219 18.113281 8.441406 18.472656 C 9.375 19.152344 9.355469 19.5 8.386719 19.5 C 7.808594 19.5 5.488281 17.648438 5.746094 17.390625 C 5.824219 17.316406 5.746094 17.167969 5.578125 17.0625 C 5.40625 16.957031 5.265625 17.042969 5.269531 17.25 C 5.273438 17.457031 5.863281 18.132812 6.585938 18.746094 C 7.617188 19.628906 7.824219 19.949219 7.5625 20.257812 C 7.066406 20.851562 6.929688 20.78125 5.339844 19.121094 C 3.980469 17.699219 2.644531 15.605469 2.644531 14.902344 C 2.644531 14.679688 2.761719 14.582031 2.945312 14.597656 Z M 2.945312 14.597656 " fill-opacity="1" fill-rule="nonzero"/></g></svg>